<svg viewBox="0 0 51.413 80.101" xmlns="http://www.w3.org/2000/svg"><g id="svgGroup" stroke-linecap="round" fill-rule="nonzero" font-size="9pt" stroke="#fca800" stroke-width="0.5mm" fill="#fca800" style="stroke:#fca800;stroke-width:0.5mm;fill:#fca800"><path d="M 26.913 80.1 Q 20.613 80.1 15.363 78.35 Q 10.113 76.6 6.313 73.35 Q 2.513 70.1 0.313 65.7 Q -0.287 64.5 0.263 63.4 Q 0.813 62.3 2.113 61.9 Q 3.213 61.5 4.313 62 Q 5.413 62.5 6.013 63.6 Q 7.813 66.8 10.763 69.2 Q 13.713 71.6 17.763 72.85 Q 21.813 74.1 26.913 74.1 Q 32.613 74.1 36.763 72.2 Q 40.913 70.3 43.163 66.6 Q 45.413 62.9 45.413 57.6 Q 45.413 51 40.663 46.45 Q 35.913 41.9 26.213 40.6 Q 15.013 39 8.713 33.35 Q 2.413 27.7 2.413 19.6 Q 2.413 13.7 5.363 9.3 Q 8.313 4.9 13.663 2.45 Q 19.013 0 26.013 0 Q 31.213 0 35.613 1.7 Q 40.013 3.4 43.313 6.15 Q 46.613 8.9 48.413 11.9 Q 49.113 13 48.763 14.25 Q 48.413 15.5 47.113 16 Q 46.013 16.4 44.913 16.05 Q 43.813 15.7 43.113 14.7 Q 41.713 12.6 39.513 10.6 Q 37.313 8.6 34.013 7.3 Q 30.713 6 26.013 6 Q 17.813 6 13.113 9.7 Q 8.413 13.4 8.413 20.2 Q 8.413 23.8 10.363 26.75 Q 12.313 29.7 16.513 31.8 Q 20.713 33.9 27.213 35 Q 40.113 37.2 45.763 42.95 Q 51.413 48.7 51.413 57.6 Q 51.413 62.8 49.663 67 Q 47.913 71.2 44.663 74.1 Q 41.413 77 36.913 78.55 Q 32.413 80.1 26.913 80.1 Z" vector-effect="non-scaling-stroke"/></g></svg>