<svg viewBox="0 0 396.6 78.801" xmlns="http://www.w3.org/2000/svg"><g id="svgGroup" stroke-linecap="round" fill-rule="nonzero" font-size="9pt" stroke="#fca800" stroke-width="0.5mm" fill="#fca800" style="stroke:#fca800;stroke-width:0.5mm;fill:#fca800"><path d="M 280.8 76.2 L 264.6 27.7 Q 264.2 25.5 264.8 24.45 Q 265.4 23.4 266.9 23.4 Q 267.7 23.4 268.5 23.85 Q 269.3 24.3 269.7 25.2 L 284.5 69.8 L 283.2 69.8 L 296.8 25.8 Q 297.1 24.7 297.9 24.05 Q 298.7 23.4 299.8 23.4 Q 300.9 23.4 301.65 24.05 Q 302.4 24.7 302.8 25.8 L 316.8 69.8 L 315 69.8 L 329.8 25.2 Q 330.6 23.4 332.6 23.4 Q 334.4 23.4 335.05 24.8 Q 335.7 26.2 335 27.7 L 318.9 76.2 Q 318.6 77.1 317.85 77.6 Q 317.1 78.1 316 78.1 Q 315 78.1 314.2 77.6 Q 313.4 77.1 313.2 76.2 L 298.9 31.8 L 300.2 31.8 L 286.4 76.2 Q 286 77.2 285.25 77.65 Q 284.5 78.1 283.6 78.1 Q 282.6 78.1 281.85 77.6 Q 281.1 77.1 280.8 76.2 Z M 182.5 34.2 L 182.5 3 Q 182.5 1.6 183.35 0.8 Q 184.2 0 185.5 0 Q 186.9 0 187.7 0.8 Q 188.5 1.6 188.5 3 L 188.5 51.3 Q 188.4 59.1 184.7 65.3 Q 181 71.5 174.75 75.1 Q 168.5 78.7 160.6 78.7 Q 152.6 78.7 146.25 75.05 Q 139.9 71.4 136.25 65.05 Q 132.6 58.7 132.6 50.7 Q 132.6 42.7 136.25 36.4 Q 139.9 30.1 146.25 26.45 Q 152.6 22.8 160.6 22.8 Q 167.8 22.8 173.55 25.9 Q 179.3 29 182.5 34.2 Z M 160.6 73.1 Q 166.9 73.1 171.85 70.15 Q 176.8 67.2 179.65 62.15 Q 182.5 57.1 182.5 50.7 Q 182.5 44.3 179.65 39.3 Q 176.8 34.3 171.85 31.35 Q 166.9 28.4 160.6 28.4 Q 154.4 28.4 149.4 31.35 Q 144.4 34.3 141.5 39.3 Q 138.6 44.3 138.6 50.7 Q 138.6 57.1 141.5 62.15 Q 144.4 67.2 149.4 70.15 Q 154.4 73.1 160.6 73.1 Z M 112.6 75.1 L 112.6 48.2 Q 112.6 41.6 110.05 37.3 Q 107.5 33 103.15 30.85 Q 98.8 28.7 93.3 28.7 Q 87.9 28.7 83.6 30.75 Q 79.3 32.8 76.8 36.4 Q 74.3 40 74.3 44.5 L 69.3 44.5 Q 69.7 38.3 73 33.35 Q 76.3 28.4 81.6 25.55 Q 86.9 22.7 93.3 22.7 Q 100.5 22.7 106.25 25.65 Q 112 28.6 115.3 34.25 Q 118.6 39.9 118.6 48.2 L 118.6 75.1 Q 118.6 76.4 117.75 77.25 Q 116.9 78.1 115.6 78.1 Q 114.3 78.1 113.45 77.25 Q 112.6 76.4 112.6 75.1 Z M 390.6 75.1 L 390.6 48.2 Q 390.6 41.6 388.05 37.3 Q 385.5 33 381.15 30.85 Q 376.8 28.7 371.3 28.7 Q 365.9 28.7 361.6 30.75 Q 357.3 32.8 354.8 36.4 Q 352.3 40 352.3 44.5 L 347.3 44.5 Q 347.7 38.3 351 33.35 Q 354.3 28.4 359.6 25.55 Q 364.9 22.7 371.3 22.7 Q 378.5 22.7 384.25 25.65 Q 390 28.6 393.3 34.25 Q 396.6 39.9 396.6 48.2 L 396.6 75.1 Q 396.6 76.4 395.75 77.25 Q 394.9 78.1 393.6 78.1 Q 392.3 78.1 391.45 77.25 Q 390.6 76.4 390.6 75.1 Z M 0 53.3 L 0 26.4 Q 0 25.1 0.85 24.25 Q 1.7 23.4 3 23.4 Q 4.3 23.4 5.15 24.25 Q 6 25.1 6 26.4 L 6 53.3 Q 6 59.8 8.55 64.15 Q 11.1 68.5 15.45 70.65 Q 19.8 72.8 25.3 72.8 Q 30.7 72.8 35 70.7 Q 39.3 68.6 41.8 65.05 Q 44.3 61.5 44.3 57 L 49.3 57 Q 48.9 63.2 45.6 68.15 Q 42.3 73.1 37.05 75.95 Q 31.8 78.8 25.3 78.8 Q 18.1 78.8 12.4 75.85 Q 6.7 72.9 3.35 67.2 Q 0 61.5 0 53.3 Z M 231.5 78.7 Q 223.5 78.7 217.15 75.05 Q 210.8 71.4 207.15 65.05 Q 203.5 58.7 203.5 50.8 Q 203.5 42.8 207.15 36.45 Q 210.8 30.1 217.15 26.45 Q 223.5 22.8 231.5 22.8 Q 239.5 22.8 245.8 26.45 Q 252.1 30.1 255.75 36.45 Q 259.4 42.8 259.4 50.8 Q 259.4 58.7 255.75 65.05 Q 252.1 71.4 245.8 75.05 Q 239.5 78.7 231.5 78.7 Z M 231.5 73.1 Q 237.8 73.1 242.75 70.15 Q 247.7 67.2 250.55 62.15 Q 253.4 57.1 253.4 50.7 Q 253.4 44.4 250.55 39.35 Q 247.7 34.3 242.75 31.35 Q 237.8 28.4 231.5 28.4 Q 225.3 28.4 220.3 31.35 Q 215.3 34.3 212.4 39.35 Q 209.5 44.4 209.5 50.8 Q 209.5 57.1 212.4 62.15 Q 215.3 67.2 220.3 70.15 Q 225.3 73.1 231.5 73.1 Z M 44.3 75.1 L 44.3 26.4 Q 44.3 25 45.15 24.2 Q 46 23.4 47.3 23.4 Q 48.7 23.4 49.5 24.2 Q 50.3 25 50.3 26.4 L 50.3 75.1 Q 50.3 76.4 49.5 77.25 Q 48.7 78.1 47.3 78.1 Q 46 78.1 45.15 77.25 Q 44.3 76.4 44.3 75.1 Z M 68.3 75.1 L 68.3 26.4 Q 68.3 25 69.15 24.2 Q 70 23.4 71.3 23.4 Q 72.7 23.4 73.5 24.2 Q 74.3 25 74.3 26.4 L 74.3 75.1 Q 74.3 76.4 73.5 77.25 Q 72.7 78.1 71.3 78.1 Q 70 78.1 69.15 77.25 Q 68.3 76.4 68.3 75.1 Z M 346.3 75.1 L 346.3 26.4 Q 346.3 25 347.15 24.2 Q 348 23.4 349.3 23.4 Q 350.7 23.4 351.5 24.2 Q 352.3 25 352.3 26.4 L 352.3 75.1 Q 352.3 76.4 351.5 77.25 Q 350.7 78.1 349.3 78.1 Q 348 78.1 347.15 77.25 Q 346.3 76.4 346.3 75.1 Z" vector-effect="non-scaling-stroke"/></g></svg>